M48
; DRILL file {KiCad 9.0.7} date 2026-02-06T12:48:42-0500
; FORMAT={-:-/ absolute / metric / decimal}
; #@! TF.CreationDate,2026-02-06T12:48:42-05:00
; #@! TF.GenerationSoftware,Kicad,Pcbnew,9.0.7
; #@! TF.FileFunction,Plated,1,2,PTH
FMAT,2
METRIC
; #@! TA.AperFunction,Plated,PTH,ComponentDrill
T1C0.950
; #@! TA.AperFunction,Plated,PTH,ComponentDrill
T2C1.000
; #@! TA.AperFunction,Plated,PTH,ComponentDrill
T3C1.100
%
G90
G05
T1
X137.24Y-87.975
X139.74Y-87.975
X142.24Y-87.975
T2
X22.86Y-71.12
X22.86Y-73.66
X25.4Y-71.12
X25.4Y-73.66
X27.94Y-71.12
X27.94Y-73.66
X30.48Y-71.12
X30.48Y-73.66
X33.02Y-71.12
X33.02Y-73.66
X35.56Y-71.12
X35.56Y-73.66
X38.1Y-71.12
X38.1Y-73.66
X40.64Y-71.12
X40.64Y-73.66
X43.18Y-71.12
X43.18Y-73.66
X45.72Y-71.12
X45.72Y-73.66
X48.26Y-71.12
X48.26Y-73.66
X50.8Y-71.12
X50.8Y-73.66
X53.34Y-71.12
X53.34Y-73.66
X55.88Y-71.12
X55.88Y-73.66
X58.42Y-71.12
X58.42Y-73.66
X60.96Y-71.12
X60.96Y-73.66
X63.5Y-71.12
X63.5Y-73.66
X66.04Y-71.12
X66.04Y-73.66
X68.58Y-71.12
X68.58Y-73.66
X71.12Y-71.12
X71.12Y-73.66
X104.14Y-27.94
X104.14Y-53.34
X106.68Y-27.94
X106.68Y-53.34
X109.22Y-27.94
X109.22Y-53.34
X111.76Y-27.94
X111.76Y-53.34
X114.3Y-27.94
X114.3Y-53.34
X116.84Y-27.94
X116.84Y-53.34
X119.38Y-27.94
X119.38Y-53.34
X121.92Y-27.94
X121.92Y-53.34
X124.46Y-27.94
X124.46Y-53.34
X127.0Y-27.94
X127.0Y-53.34
X129.54Y-27.94
X129.54Y-53.34
X132.08Y-27.94
X132.08Y-53.34
X134.62Y-27.94
X134.62Y-53.34
X137.16Y-27.94
X137.16Y-53.34
X139.7Y-27.94
X139.7Y-53.34
T3
X29.0Y-87.5
X29.0Y-92.0
X35.5Y-87.5
X35.5Y-92.0
T2
G00X33.02Y-29.48
M15
G01X33.02Y-31.48
M16
G05
G00X35.02Y-35.18
M15
G01X37.02Y-35.18
M16
G05
G00X39.02Y-29.48
M15
G01X39.02Y-31.48
M16
G05
M30
