%TF.GenerationSoftware,KiCad,Pcbnew,9.0.7*%
%TF.CreationDate,2026-02-06T12:48:32-05:00*%
%TF.ProjectId,GoalStick,476f616c-5374-4696-936b-2e6b69636164,rev?*%
%TF.SameCoordinates,Original*%
%TF.FileFunction,Copper,L2,Bot*%
%TF.FilePolarity,Positive*%
%FSLAX46Y46*%
G04 Gerber Fmt 4.6, Leading zero omitted, Abs format (unit mm)*
G04 Created by KiCad (PCBNEW 9.0.7) date 2026-02-06 12:48:32*
%MOMM*%
%LPD*%
G01*
G04 APERTURE LIST*
G04 Aperture macros list*
%AMRoundRect*
0 Rectangle with rounded corners*
0 $1 Rounding radius*
0 $2 $3 $4 $5 $6 $7 $8 $9 X,Y pos of 4 corners*
0 Add a 4 corners polygon primitive as box body*
4,1,4,$2,$3,$4,$5,$6,$7,$8,$9,$2,$3,0*
0 Add four circle primitives for the rounded corners*
1,1,$1+$1,$2,$3*
1,1,$1+$1,$4,$5*
1,1,$1+$1,$6,$7*
1,1,$1+$1,$8,$9*
0 Add four rect primitives between the rounded corners*
20,1,$1+$1,$2,$3,$4,$5,0*
20,1,$1+$1,$4,$5,$6,$7,0*
20,1,$1+$1,$6,$7,$8,$9,0*
20,1,$1+$1,$8,$9,$2,$3,0*%
G04 Aperture macros list end*
%TA.AperFunction,ComponentPad*%
%ADD10C,1.700000*%
%TD*%
%TA.AperFunction,ComponentPad*%
%ADD11R,1.700000X1.700000*%
%TD*%
%TA.AperFunction,ComponentPad*%
%ADD12O,1.700000X1.950000*%
%TD*%
%TA.AperFunction,ComponentPad*%
%ADD13RoundRect,0.250000X-0.600000X-0.725000X0.600000X-0.725000X0.600000X0.725000X-0.600000X0.725000X0*%
%TD*%
%TA.AperFunction,ComponentPad*%
%ADD14C,2.000000*%
%TD*%
%TA.AperFunction,ComponentPad*%
%ADD15R,3.500000X3.500000*%
%TD*%
%TA.AperFunction,ComponentPad*%
%ADD16RoundRect,0.750000X-0.750000X-1.000000X0.750000X-1.000000X0.750000X1.000000X-0.750000X1.000000X0*%
%TD*%
%TA.AperFunction,ComponentPad*%
%ADD17RoundRect,0.875000X-0.875000X-0.875000X0.875000X-0.875000X0.875000X0.875000X-0.875000X0.875000X0*%
%TD*%
%TA.AperFunction,Conductor*%
%ADD18C,0.250000*%
%TD*%
G04 APERTURE END LIST*
D10*
%TO.P,Pi_Zero_2W1,40,Pin_40*%
%TO.N,unconnected-(Pi_Zero_2W1-Pin_40-Pad40)*%
X22860000Y-71120000D03*
%TO.P,Pi_Zero_2W1,39,Pin_39*%
%TO.N,GND*%
X22860000Y-73660000D03*
%TO.P,Pi_Zero_2W1,38,Pin_38*%
%TO.N,unconnected-(Pi_Zero_2W1-Pin_38-Pad38)*%
X25400000Y-71120000D03*
%TO.P,Pi_Zero_2W1,37,Pin_37*%
%TO.N,unconnected-(Pi_Zero_2W1-Pin_37-Pad37)*%
X25400000Y-73660000D03*
%TO.P,Pi_Zero_2W1,36,Pin_36*%
%TO.N,unconnected-(Pi_Zero_2W1-Pin_36-Pad36)*%
X27940000Y-71120000D03*
%TO.P,Pi_Zero_2W1,35,Pin_35*%
%TO.N,unconnected-(Pi_Zero_2W1-Pin_35-Pad35)*%
X27940000Y-73660000D03*
%TO.P,Pi_Zero_2W1,34,Pin_34*%
%TO.N,GND*%
X30480000Y-71120000D03*
%TO.P,Pi_Zero_2W1,33,Pin_33*%
%TO.N,unconnected-(Pi_Zero_2W1-Pin_33-Pad33)*%
X30480000Y-73660000D03*
%TO.P,Pi_Zero_2W1,32,Pin_32*%
%TO.N,unconnected-(Pi_Zero_2W1-Pin_32-Pad32)*%
X33020000Y-71120000D03*
%TO.P,Pi_Zero_2W1,31,Pin_31*%
%TO.N,unconnected-(Pi_Zero_2W1-Pin_31-Pad31)*%
X33020000Y-73660000D03*
%TO.P,Pi_Zero_2W1,30,Pin_30*%
%TO.N,GND*%
X35560000Y-71120000D03*
%TO.P,Pi_Zero_2W1,29,Pin_29*%
%TO.N,unconnected-(Pi_Zero_2W1-Pin_29-Pad29)*%
X35560000Y-73660000D03*
%TO.P,Pi_Zero_2W1,28,Pin_28*%
%TO.N,unconnected-(Pi_Zero_2W1-Pin_28-Pad28)*%
X38100000Y-71120000D03*
%TO.P,Pi_Zero_2W1,27,Pin_27*%
%TO.N,unconnected-(Pi_Zero_2W1-Pin_27-Pad27)*%
X38100000Y-73660000D03*
%TO.P,Pi_Zero_2W1,26,Pin_26*%
%TO.N,unconnected-(Pi_Zero_2W1-Pin_26-Pad26)*%
X40640000Y-71120000D03*
%TO.P,Pi_Zero_2W1,25,Pin_25*%
%TO.N,GND*%
X40640000Y-73660000D03*
%TO.P,Pi_Zero_2W1,24,Pin_24*%
%TO.N,unconnected-(Pi_Zero_2W1-Pin_24-Pad24)*%
X43180000Y-71120000D03*
%TO.P,Pi_Zero_2W1,23,Pin_23*%
%TO.N,unconnected-(Pi_Zero_2W1-Pin_23-Pad23)*%
X43180000Y-73660000D03*
%TO.P,Pi_Zero_2W1,22,Pin_22*%
%TO.N,unconnected-(Pi_Zero_2W1-Pin_22-Pad22)*%
X45720000Y-71120000D03*
%TO.P,Pi_Zero_2W1,21,Pin_21*%
%TO.N,unconnected-(Pi_Zero_2W1-Pin_21-Pad21)*%
X45720000Y-73660000D03*
%TO.P,Pi_Zero_2W1,20,Pin_20*%
%TO.N,GND*%
X48260000Y-71120000D03*
%TO.P,Pi_Zero_2W1,19,Pin_19*%
%TO.N,unconnected-(Pi_Zero_2W1-Pin_19-Pad19)*%
X48260000Y-73660000D03*
%TO.P,Pi_Zero_2W1,18,Pin_18*%
%TO.N,unconnected-(Pi_Zero_2W1-Pin_18-Pad18)*%
X50800000Y-71120000D03*
%TO.P,Pi_Zero_2W1,17,Pin_17*%
%TO.N,unconnected-(Pi_Zero_2W1-Pin_17-Pad17)*%
X50800000Y-73660000D03*
%TO.P,Pi_Zero_2W1,16,Pin_16*%
%TO.N,unconnected-(Pi_Zero_2W1-Pin_16-Pad16)*%
X53340000Y-71120000D03*
%TO.P,Pi_Zero_2W1,15,Pin_15*%
%TO.N,unconnected-(Pi_Zero_2W1-Pin_15-Pad15)*%
X53340000Y-73660000D03*
%TO.P,Pi_Zero_2W1,14,Pin_14*%
%TO.N,GND*%
X55880000Y-71120000D03*
%TO.P,Pi_Zero_2W1,13,Pin_13*%
%TO.N,/ESP_RESET*%
X55880000Y-73660000D03*
%TO.P,Pi_Zero_2W1,12,Pin_12*%
%TO.N,unconnected-(Pi_Zero_2W1-Pin_12-Pad12)*%
X58420000Y-71120000D03*
%TO.P,Pi_Zero_2W1,11,Pin_11*%
%TO.N,/BTN*%
X58420000Y-73660000D03*
%TO.P,Pi_Zero_2W1,10,Pin_10*%
%TO.N,/UART_RX*%
X60960000Y-71120000D03*
%TO.P,Pi_Zero_2W1,9,Pin_9*%
%TO.N,GND*%
X60960000Y-73660000D03*
%TO.P,Pi_Zero_2W1,8,Pin_8*%
%TO.N,/UART_TX*%
X63500000Y-71120000D03*
%TO.P,Pi_Zero_2W1,7,Pin_7*%
%TO.N,unconnected-(Pi_Zero_2W1-Pin_7-Pad7)*%
X63500000Y-73660000D03*
%TO.P,Pi_Zero_2W1,6,Pin_6*%
%TO.N,GND*%
X66040000Y-71120000D03*
%TO.P,Pi_Zero_2W1,5,Pin_5*%
%TO.N,unconnected-(Pi_Zero_2W1-Pin_5-Pad5)*%
X66040000Y-73660000D03*
%TO.P,Pi_Zero_2W1,4,Pin_4*%
%TO.N,unconnected-(Pi_Zero_2W1-Pin_4-Pad4)*%
X68580000Y-71120000D03*
%TO.P,Pi_Zero_2W1,3,Pin_3*%
%TO.N,unconnected-(Pi_Zero_2W1-Pin_3-Pad3)*%
X68580000Y-73660000D03*
%TO.P,Pi_Zero_2W1,2,Pin_2*%
%TO.N,+5V*%
X71120000Y-71120000D03*
D11*
%TO.P,Pi_Zero_2W1,1,Pin_1*%
X71120000Y-73660000D03*
%TD*%
D12*
%TO.P,LED_Strip1,3,Pin_3*%
%TO.N,GND*%
X142240000Y-87975000D03*
%TO.P,LED_Strip1,2,Pin_2*%
%TO.N,/LED_DATA*%
X139740000Y-87975000D03*
D13*
%TO.P,LED_Strip1,1,Pin_1*%
%TO.N,+5V*%
X137240000Y-87975000D03*
%TD*%
D14*
%TO.P,Pairing_Button1,1,1*%
%TO.N,/BTN*%
X29000000Y-87500000D03*
X35500000Y-87500000D03*
%TO.P,Pairing_Button1,2,2*%
%TO.N,GND*%
X29000000Y-92000000D03*
X35500000Y-92000000D03*
%TD*%
D15*
%TO.P,J1,1*%
%TO.N,+5V*%
X39020000Y-30480000D03*
D16*
%TO.P,J1,2*%
%TO.N,unconnected-(J1-Pad2)*%
X33020000Y-30480000D03*
D17*
%TO.P,J1,3*%
%TO.N,GND*%
X36020000Y-35180000D03*
%TD*%
D10*
%TO.P,ESP32_Right1,15,Pin_15*%
%TO.N,unconnected-(ESP32_Right1-Pin_15-Pad15)*%
X139700000Y-53340000D03*
%TO.P,ESP32_Right1,14,Pin_14*%
%TO.N,unconnected-(ESP32_Right1-Pin_14-Pad14)*%
X137160000Y-53340000D03*
%TO.P,ESP32_Right1,13,Pin_13*%
%TO.N,/LED_DATA*%
X134620000Y-53340000D03*
%TO.P,ESP32_Right1,12,Pin_12*%
%TO.N,/UART_TX*%
X132080000Y-53340000D03*
%TO.P,ESP32_Right1,11,Pin_11*%
%TO.N,/UART_RX*%
X129540000Y-53340000D03*
%TO.P,ESP32_Right1,10,Pin_10*%
%TO.N,unconnected-(ESP32_Right1-Pin_10-Pad10)*%
X127000000Y-53340000D03*
%TO.P,ESP32_Right1,9,Pin_9*%
%TO.N,unconnected-(ESP32_Right1-Pin_9-Pad9)*%
X124460000Y-53340000D03*
%TO.P,ESP32_Right1,8,Pin_8*%
%TO.N,unconnected-(ESP32_Right1-Pin_8-Pad8)*%
X121920000Y-53340000D03*
%TO.P,ESP32_Right1,7,Pin_7*%
%TO.N,unconnected-(ESP32_Right1-Pin_7-Pad7)*%
X119380000Y-53340000D03*
%TO.P,ESP32_Right1,6,Pin_6*%
%TO.N,unconnected-(ESP32_Right1-Pin_6-Pad6)*%
X116840000Y-53340000D03*
%TO.P,ESP32_Right1,5,Pin_5*%
%TO.N,unconnected-(ESP32_Right1-Pin_5-Pad5)*%
X114300000Y-53340000D03*
%TO.P,ESP32_Right1,4,Pin_4*%
%TO.N,unconnected-(ESP32_Right1-Pin_4-Pad4)*%
X111760000Y-53340000D03*
%TO.P,ESP32_Right1,3,Pin_3*%
%TO.N,unconnected-(ESP32_Right1-Pin_3-Pad3)*%
X109220000Y-53340000D03*
%TO.P,ESP32_Right1,2,Pin_2*%
%TO.N,GND*%
X106680000Y-53340000D03*
D11*
%TO.P,ESP32_Right1,1,Pin_1*%
%TO.N,+5V*%
X104140000Y-53340000D03*
%TD*%
%TO.P,ESP32_Left1,1,Pin_1*%
%TO.N,/+3V3*%
X139700000Y-27940000D03*
D10*
%TO.P,ESP32_Left1,2,Pin_2*%
%TO.N,/ESP_RESET*%
X137160000Y-27940000D03*
%TO.P,ESP32_Left1,3,Pin_3*%
%TO.N,unconnected-(ESP32_Left1-Pin_3-Pad3)*%
X134620000Y-27940000D03*
%TO.P,ESP32_Left1,4,Pin_4*%
%TO.N,unconnected-(ESP32_Left1-Pin_4-Pad4)*%
X132080000Y-27940000D03*
%TO.P,ESP32_Left1,5,Pin_5*%
%TO.N,unconnected-(ESP32_Left1-Pin_5-Pad5)*%
X129540000Y-27940000D03*
%TO.P,ESP32_Left1,6,Pin_6*%
%TO.N,unconnected-(ESP32_Left1-Pin_6-Pad6)*%
X127000000Y-27940000D03*
%TO.P,ESP32_Left1,7,Pin_7*%
%TO.N,unconnected-(ESP32_Left1-Pin_7-Pad7)*%
X124460000Y-27940000D03*
%TO.P,ESP32_Left1,8,Pin_8*%
%TO.N,GND*%
X121920000Y-27940000D03*
%TO.P,ESP32_Left1,9,Pin_9*%
%TO.N,unconnected-(ESP32_Left1-Pin_9-Pad9)*%
X119380000Y-27940000D03*
%TO.P,ESP32_Left1,10,Pin_10*%
%TO.N,unconnected-(ESP32_Left1-Pin_10-Pad10)*%
X116840000Y-27940000D03*
%TO.P,ESP32_Left1,11,Pin_11*%
%TO.N,unconnected-(ESP32_Left1-Pin_11-Pad11)*%
X114300000Y-27940000D03*
%TO.P,ESP32_Left1,12,Pin_12*%
%TO.N,unconnected-(ESP32_Left1-Pin_12-Pad12)*%
X111760000Y-27940000D03*
%TO.P,ESP32_Left1,13,Pin_13*%
%TO.N,unconnected-(ESP32_Left1-Pin_13-Pad13)*%
X109220000Y-27940000D03*
%TO.P,ESP32_Left1,14,Pin_14*%
%TO.N,unconnected-(ESP32_Left1-Pin_14-Pad14)*%
X106680000Y-27940000D03*
%TO.P,ESP32_Left1,15,Pin_15*%
%TO.N,unconnected-(ESP32_Left1-Pin_15-Pad15)*%
X104140000Y-27940000D03*
%TD*%
D18*
%TO.N,GND*%
X29000000Y-92000000D02*
X35500000Y-92000000D01*
%TO.N,/BTN*%
X29000000Y-87500000D02*
X35500000Y-87500000D01*
%TO.N,GND*%
X30480000Y-71120000D02*
X29116000Y-72484000D01*
X24036000Y-72484000D02*
X22860000Y-73660000D01*
X29116000Y-72484000D02*
X24036000Y-72484000D01*
X35560000Y-71120000D02*
X34384000Y-72296000D01*
X34384000Y-72296000D02*
X31656000Y-72296000D01*
X31656000Y-72296000D02*
X30480000Y-71120000D01*
X40640000Y-73660000D02*
X39276000Y-72296000D01*
X39276000Y-72296000D02*
X36736000Y-72296000D01*
X36736000Y-72296000D02*
X35560000Y-71120000D01*
X48260000Y-71120000D02*
X47084000Y-72296000D01*
X42004000Y-72296000D02*
X40640000Y-73660000D01*
X47084000Y-72296000D02*
X42004000Y-72296000D01*
X55880000Y-71120000D02*
X54704000Y-69944000D01*
X54704000Y-69944000D02*
X49436000Y-69944000D01*
X49436000Y-69944000D02*
X48260000Y-71120000D01*
X60960000Y-73660000D02*
X59596000Y-72296000D01*
X59596000Y-72296000D02*
X57056000Y-72296000D01*
X57056000Y-72296000D02*
X55880000Y-71120000D01*
%TO.N,/UART_RX*%
X129540000Y-53340000D02*
X127000000Y-55880000D01*
X127000000Y-55880000D02*
X76200000Y-55880000D01*
X76200000Y-55880000D02*
X60960000Y-71120000D01*
%TD*%
M02*
