%TF.GenerationSoftware,KiCad,Pcbnew,9.0.7*%
%TF.CreationDate,2026-02-06T12:48:32-05:00*%
%TF.ProjectId,GoalStick,476f616c-5374-4696-936b-2e6b69636164,rev?*%
%TF.SameCoordinates,Original*%
%TF.FileFunction,Legend,Top*%
%TF.FilePolarity,Positive*%
%FSLAX46Y46*%
G04 Gerber Fmt 4.6, Leading zero omitted, Abs format (unit mm)*
G04 Created by KiCad (PCBNEW 9.0.7) date 2026-02-06 12:48:32*
%MOMM*%
%LPD*%
G01*
G04 APERTURE LIST*
%ADD10C,0.150000*%
%ADD11C,0.120000*%
G04 APERTURE END LIST*
D10*
X74344819Y-76842380D02*
X73344819Y-76842380D01*
X73344819Y-76842380D02*
X73344819Y-76461428D01*
X73344819Y-76461428D02*
X73392438Y-76366190D01*
X73392438Y-76366190D02*
X73440057Y-76318571D01*
X73440057Y-76318571D02*
X73535295Y-76270952D01*
X73535295Y-76270952D02*
X73678152Y-76270952D01*
X73678152Y-76270952D02*
X73773390Y-76318571D01*
X73773390Y-76318571D02*
X73821009Y-76366190D01*
X73821009Y-76366190D02*
X73868628Y-76461428D01*
X73868628Y-76461428D02*
X73868628Y-76842380D01*
X74344819Y-75842380D02*
X73678152Y-75842380D01*
X73344819Y-75842380D02*
X73392438Y-75889999D01*
X73392438Y-75889999D02*
X73440057Y-75842380D01*
X73440057Y-75842380D02*
X73392438Y-75794761D01*
X73392438Y-75794761D02*
X73344819Y-75842380D01*
X73344819Y-75842380D02*
X73440057Y-75842380D01*
X74440057Y-75604286D02*
X74440057Y-74842381D01*
X73344819Y-74699523D02*
X73344819Y-74032857D01*
X73344819Y-74032857D02*
X74344819Y-74699523D01*
X74344819Y-74699523D02*
X74344819Y-74032857D01*
X74297200Y-73270952D02*
X74344819Y-73366190D01*
X74344819Y-73366190D02*
X74344819Y-73556666D01*
X74344819Y-73556666D02*
X74297200Y-73651904D01*
X74297200Y-73651904D02*
X74201961Y-73699523D01*
X74201961Y-73699523D02*
X73821009Y-73699523D01*
X73821009Y-73699523D02*
X73725771Y-73651904D01*
X73725771Y-73651904D02*
X73678152Y-73556666D01*
X73678152Y-73556666D02*
X73678152Y-73366190D01*
X73678152Y-73366190D02*
X73725771Y-73270952D01*
X73725771Y-73270952D02*
X73821009Y-73223333D01*
X73821009Y-73223333D02*
X73916247Y-73223333D01*
X73916247Y-73223333D02*
X74011485Y-73699523D01*
X74344819Y-72794761D02*
X73678152Y-72794761D01*
X73868628Y-72794761D02*
X73773390Y-72747142D01*
X73773390Y-72747142D02*
X73725771Y-72699523D01*
X73725771Y-72699523D02*
X73678152Y-72604285D01*
X73678152Y-72604285D02*
X73678152Y-72509047D01*
X74344819Y-72032856D02*
X74297200Y-72128094D01*
X74297200Y-72128094D02*
X74249580Y-72175713D01*
X74249580Y-72175713D02*
X74154342Y-72223332D01*
X74154342Y-72223332D02*
X73868628Y-72223332D01*
X73868628Y-72223332D02*
X73773390Y-72175713D01*
X73773390Y-72175713D02*
X73725771Y-72128094D01*
X73725771Y-72128094D02*
X73678152Y-72032856D01*
X73678152Y-72032856D02*
X73678152Y-71889999D01*
X73678152Y-71889999D02*
X73725771Y-71794761D01*
X73725771Y-71794761D02*
X73773390Y-71747142D01*
X73773390Y-71747142D02*
X73868628Y-71699523D01*
X73868628Y-71699523D02*
X74154342Y-71699523D01*
X74154342Y-71699523D02*
X74249580Y-71747142D01*
X74249580Y-71747142D02*
X74297200Y-71794761D01*
X74297200Y-71794761D02*
X74344819Y-71889999D01*
X74344819Y-71889999D02*
X74344819Y-72032856D01*
X74440057Y-71509047D02*
X74440057Y-70747142D01*
X73440057Y-70556665D02*
X73392438Y-70509046D01*
X73392438Y-70509046D02*
X73344819Y-70413808D01*
X73344819Y-70413808D02*
X73344819Y-70175713D01*
X73344819Y-70175713D02*
X73392438Y-70080475D01*
X73392438Y-70080475D02*
X73440057Y-70032856D01*
X73440057Y-70032856D02*
X73535295Y-69985237D01*
X73535295Y-69985237D02*
X73630533Y-69985237D01*
X73630533Y-69985237D02*
X73773390Y-70032856D01*
X73773390Y-70032856D02*
X74344819Y-70604284D01*
X74344819Y-70604284D02*
X74344819Y-69985237D01*
X73344819Y-69651903D02*
X74344819Y-69413808D01*
X74344819Y-69413808D02*
X73630533Y-69223332D01*
X73630533Y-69223332D02*
X74344819Y-69032856D01*
X74344819Y-69032856D02*
X73344819Y-68794761D01*
X74344819Y-67889999D02*
X74344819Y-68461427D01*
X74344819Y-68175713D02*
X73344819Y-68175713D01*
X73344819Y-68175713D02*
X73487676Y-68270951D01*
X73487676Y-68270951D02*
X73582914Y-68366189D01*
X73582914Y-68366189D02*
X73630533Y-68461427D01*
X136478094Y-84879819D02*
X136001904Y-84879819D01*
X136001904Y-84879819D02*
X136001904Y-83879819D01*
X136811428Y-84356009D02*
X137144761Y-84356009D01*
X137287618Y-84879819D02*
X136811428Y-84879819D01*
X136811428Y-84879819D02*
X136811428Y-83879819D01*
X136811428Y-83879819D02*
X137287618Y-83879819D01*
X137716190Y-84879819D02*
X137716190Y-83879819D01*
X137716190Y-83879819D02*
X137954285Y-83879819D01*
X137954285Y-83879819D02*
X138097142Y-83927438D01*
X138097142Y-83927438D02*
X138192380Y-84022676D01*
X138192380Y-84022676D02*
X138239999Y-84117914D01*
X138239999Y-84117914D02*
X138287618Y-84308390D01*
X138287618Y-84308390D02*
X138287618Y-84451247D01*
X138287618Y-84451247D02*
X138239999Y-84641723D01*
X138239999Y-84641723D02*
X138192380Y-84736961D01*
X138192380Y-84736961D02*
X138097142Y-84832200D01*
X138097142Y-84832200D02*
X137954285Y-84879819D01*
X137954285Y-84879819D02*
X137716190Y-84879819D01*
X138478095Y-84975057D02*
X139239999Y-84975057D01*
X139430476Y-84832200D02*
X139573333Y-84879819D01*
X139573333Y-84879819D02*
X139811428Y-84879819D01*
X139811428Y-84879819D02*
X139906666Y-84832200D01*
X139906666Y-84832200D02*
X139954285Y-84784580D01*
X139954285Y-84784580D02*
X140001904Y-84689342D01*
X140001904Y-84689342D02*
X140001904Y-84594104D01*
X140001904Y-84594104D02*
X139954285Y-84498866D01*
X139954285Y-84498866D02*
X139906666Y-84451247D01*
X139906666Y-84451247D02*
X139811428Y-84403628D01*
X139811428Y-84403628D02*
X139620952Y-84356009D01*
X139620952Y-84356009D02*
X139525714Y-84308390D01*
X139525714Y-84308390D02*
X139478095Y-84260771D01*
X139478095Y-84260771D02*
X139430476Y-84165533D01*
X139430476Y-84165533D02*
X139430476Y-84070295D01*
X139430476Y-84070295D02*
X139478095Y-83975057D01*
X139478095Y-83975057D02*
X139525714Y-83927438D01*
X139525714Y-83927438D02*
X139620952Y-83879819D01*
X139620952Y-83879819D02*
X139859047Y-83879819D01*
X139859047Y-83879819D02*
X140001904Y-83927438D01*
X140287619Y-84213152D02*
X140668571Y-84213152D01*
X140430476Y-83879819D02*
X140430476Y-84736961D01*
X140430476Y-84736961D02*
X140478095Y-84832200D01*
X140478095Y-84832200D02*
X140573333Y-84879819D01*
X140573333Y-84879819D02*
X140668571Y-84879819D01*
X141001905Y-84879819D02*
X141001905Y-84213152D01*
X141001905Y-84403628D02*
X141049524Y-84308390D01*
X141049524Y-84308390D02*
X141097143Y-84260771D01*
X141097143Y-84260771D02*
X141192381Y-84213152D01*
X141192381Y-84213152D02*
X141287619Y-84213152D01*
X141620953Y-84879819D02*
X141620953Y-84213152D01*
X141620953Y-83879819D02*
X141573334Y-83927438D01*
X141573334Y-83927438D02*
X141620953Y-83975057D01*
X141620953Y-83975057D02*
X141668572Y-83927438D01*
X141668572Y-83927438D02*
X141620953Y-83879819D01*
X141620953Y-83879819D02*
X141620953Y-83975057D01*
X142097143Y-84213152D02*
X142097143Y-85213152D01*
X142097143Y-84260771D02*
X142192381Y-84213152D01*
X142192381Y-84213152D02*
X142382857Y-84213152D01*
X142382857Y-84213152D02*
X142478095Y-84260771D01*
X142478095Y-84260771D02*
X142525714Y-84308390D01*
X142525714Y-84308390D02*
X142573333Y-84403628D01*
X142573333Y-84403628D02*
X142573333Y-84689342D01*
X142573333Y-84689342D02*
X142525714Y-84784580D01*
X142525714Y-84784580D02*
X142478095Y-84832200D01*
X142478095Y-84832200D02*
X142382857Y-84879819D01*
X142382857Y-84879819D02*
X142192381Y-84879819D01*
X142192381Y-84879819D02*
X142097143Y-84832200D01*
X143525714Y-84879819D02*
X142954286Y-84879819D01*
X143240000Y-84879819D02*
X143240000Y-83879819D01*
X143240000Y-83879819D02*
X143144762Y-84022676D01*
X143144762Y-84022676D02*
X143049524Y-84117914D01*
X143049524Y-84117914D02*
X142954286Y-84165533D01*
X26559523Y-85954819D02*
X26559523Y-84954819D01*
X26559523Y-84954819D02*
X26940475Y-84954819D01*
X26940475Y-84954819D02*
X27035713Y-85002438D01*
X27035713Y-85002438D02*
X27083332Y-85050057D01*
X27083332Y-85050057D02*
X27130951Y-85145295D01*
X27130951Y-85145295D02*
X27130951Y-85288152D01*
X27130951Y-85288152D02*
X27083332Y-85383390D01*
X27083332Y-85383390D02*
X27035713Y-85431009D01*
X27035713Y-85431009D02*
X26940475Y-85478628D01*
X26940475Y-85478628D02*
X26559523Y-85478628D01*
X27988094Y-85954819D02*
X27988094Y-85431009D01*
X27988094Y-85431009D02*
X27940475Y-85335771D01*
X27940475Y-85335771D02*
X27845237Y-85288152D01*
X27845237Y-85288152D02*
X27654761Y-85288152D01*
X27654761Y-85288152D02*
X27559523Y-85335771D01*
X27988094Y-85907200D02*
X27892856Y-85954819D01*
X27892856Y-85954819D02*
X27654761Y-85954819D01*
X27654761Y-85954819D02*
X27559523Y-85907200D01*
X27559523Y-85907200D02*
X27511904Y-85811961D01*
X27511904Y-85811961D02*
X27511904Y-85716723D01*
X27511904Y-85716723D02*
X27559523Y-85621485D01*
X27559523Y-85621485D02*
X27654761Y-85573866D01*
X27654761Y-85573866D02*
X27892856Y-85573866D01*
X27892856Y-85573866D02*
X27988094Y-85526247D01*
X28464285Y-85954819D02*
X28464285Y-85288152D01*
X28464285Y-84954819D02*
X28416666Y-85002438D01*
X28416666Y-85002438D02*
X28464285Y-85050057D01*
X28464285Y-85050057D02*
X28511904Y-85002438D01*
X28511904Y-85002438D02*
X28464285Y-84954819D01*
X28464285Y-84954819D02*
X28464285Y-85050057D01*
X28940475Y-85954819D02*
X28940475Y-85288152D01*
X28940475Y-85478628D02*
X28988094Y-85383390D01*
X28988094Y-85383390D02*
X29035713Y-85335771D01*
X29035713Y-85335771D02*
X29130951Y-85288152D01*
X29130951Y-85288152D02*
X29226189Y-85288152D01*
X29559523Y-85954819D02*
X29559523Y-85288152D01*
X29559523Y-84954819D02*
X29511904Y-85002438D01*
X29511904Y-85002438D02*
X29559523Y-85050057D01*
X29559523Y-85050057D02*
X29607142Y-85002438D01*
X29607142Y-85002438D02*
X29559523Y-84954819D01*
X29559523Y-84954819D02*
X29559523Y-85050057D01*
X30035713Y-85288152D02*
X30035713Y-85954819D01*
X30035713Y-85383390D02*
X30083332Y-85335771D01*
X30083332Y-85335771D02*
X30178570Y-85288152D01*
X30178570Y-85288152D02*
X30321427Y-85288152D01*
X30321427Y-85288152D02*
X30416665Y-85335771D01*
X30416665Y-85335771D02*
X30464284Y-85431009D01*
X30464284Y-85431009D02*
X30464284Y-85954819D01*
X31369046Y-85288152D02*
X31369046Y-86097676D01*
X31369046Y-86097676D02*
X31321427Y-86192914D01*
X31321427Y-86192914D02*
X31273808Y-86240533D01*
X31273808Y-86240533D02*
X31178570Y-86288152D01*
X31178570Y-86288152D02*
X31035713Y-86288152D01*
X31035713Y-86288152D02*
X30940475Y-86240533D01*
X31369046Y-85907200D02*
X31273808Y-85954819D01*
X31273808Y-85954819D02*
X31083332Y-85954819D01*
X31083332Y-85954819D02*
X30988094Y-85907200D01*
X30988094Y-85907200D02*
X30940475Y-85859580D01*
X30940475Y-85859580D02*
X30892856Y-85764342D01*
X30892856Y-85764342D02*
X30892856Y-85478628D01*
X30892856Y-85478628D02*
X30940475Y-85383390D01*
X30940475Y-85383390D02*
X30988094Y-85335771D01*
X30988094Y-85335771D02*
X31083332Y-85288152D01*
X31083332Y-85288152D02*
X31273808Y-85288152D01*
X31273808Y-85288152D02*
X31369046Y-85335771D01*
X31607142Y-86050057D02*
X32369046Y-86050057D01*
X32940475Y-85431009D02*
X33083332Y-85478628D01*
X33083332Y-85478628D02*
X33130951Y-85526247D01*
X33130951Y-85526247D02*
X33178570Y-85621485D01*
X33178570Y-85621485D02*
X33178570Y-85764342D01*
X33178570Y-85764342D02*
X33130951Y-85859580D01*
X33130951Y-85859580D02*
X33083332Y-85907200D01*
X33083332Y-85907200D02*
X32988094Y-85954819D01*
X32988094Y-85954819D02*
X32607142Y-85954819D01*
X32607142Y-85954819D02*
X32607142Y-84954819D01*
X32607142Y-84954819D02*
X32940475Y-84954819D01*
X32940475Y-84954819D02*
X33035713Y-85002438D01*
X33035713Y-85002438D02*
X33083332Y-85050057D01*
X33083332Y-85050057D02*
X33130951Y-85145295D01*
X33130951Y-85145295D02*
X33130951Y-85240533D01*
X33130951Y-85240533D02*
X33083332Y-85335771D01*
X33083332Y-85335771D02*
X33035713Y-85383390D01*
X33035713Y-85383390D02*
X32940475Y-85431009D01*
X32940475Y-85431009D02*
X32607142Y-85431009D01*
X34035713Y-85288152D02*
X34035713Y-85954819D01*
X33607142Y-85288152D02*
X33607142Y-85811961D01*
X33607142Y-85811961D02*
X33654761Y-85907200D01*
X33654761Y-85907200D02*
X33749999Y-85954819D01*
X33749999Y-85954819D02*
X33892856Y-85954819D01*
X33892856Y-85954819D02*
X33988094Y-85907200D01*
X33988094Y-85907200D02*
X34035713Y-85859580D01*
X34369047Y-85288152D02*
X34749999Y-85288152D01*
X34511904Y-84954819D02*
X34511904Y-85811961D01*
X34511904Y-85811961D02*
X34559523Y-85907200D01*
X34559523Y-85907200D02*
X34654761Y-85954819D01*
X34654761Y-85954819D02*
X34749999Y-85954819D01*
X34940476Y-85288152D02*
X35321428Y-85288152D01*
X35083333Y-84954819D02*
X35083333Y-85811961D01*
X35083333Y-85811961D02*
X35130952Y-85907200D01*
X35130952Y-85907200D02*
X35226190Y-85954819D01*
X35226190Y-85954819D02*
X35321428Y-85954819D01*
X35797619Y-85954819D02*
X35702381Y-85907200D01*
X35702381Y-85907200D02*
X35654762Y-85859580D01*
X35654762Y-85859580D02*
X35607143Y-85764342D01*
X35607143Y-85764342D02*
X35607143Y-85478628D01*
X35607143Y-85478628D02*
X35654762Y-85383390D01*
X35654762Y-85383390D02*
X35702381Y-85335771D01*
X35702381Y-85335771D02*
X35797619Y-85288152D01*
X35797619Y-85288152D02*
X35940476Y-85288152D01*
X35940476Y-85288152D02*
X36035714Y-85335771D01*
X36035714Y-85335771D02*
X36083333Y-85383390D01*
X36083333Y-85383390D02*
X36130952Y-85478628D01*
X36130952Y-85478628D02*
X36130952Y-85764342D01*
X36130952Y-85764342D02*
X36083333Y-85859580D01*
X36083333Y-85859580D02*
X36035714Y-85907200D01*
X36035714Y-85907200D02*
X35940476Y-85954819D01*
X35940476Y-85954819D02*
X35797619Y-85954819D01*
X36559524Y-85288152D02*
X36559524Y-85954819D01*
X36559524Y-85383390D02*
X36607143Y-85335771D01*
X36607143Y-85335771D02*
X36702381Y-85288152D01*
X36702381Y-85288152D02*
X36845238Y-85288152D01*
X36845238Y-85288152D02*
X36940476Y-85335771D01*
X36940476Y-85335771D02*
X36988095Y-85431009D01*
X36988095Y-85431009D02*
X36988095Y-85954819D01*
X37988095Y-85954819D02*
X37416667Y-85954819D01*
X37702381Y-85954819D02*
X37702381Y-84954819D01*
X37702381Y-84954819D02*
X37607143Y-85097676D01*
X37607143Y-85097676D02*
X37511905Y-85192914D01*
X37511905Y-85192914D02*
X37416667Y-85240533D01*
X30236666Y-35684819D02*
X30236666Y-36399104D01*
X30236666Y-36399104D02*
X30189047Y-36541961D01*
X30189047Y-36541961D02*
X30093809Y-36637200D01*
X30093809Y-36637200D02*
X29950952Y-36684819D01*
X29950952Y-36684819D02*
X29855714Y-36684819D01*
X31236666Y-36684819D02*
X30665238Y-36684819D01*
X30950952Y-36684819D02*
X30950952Y-35684819D01*
X30950952Y-35684819D02*
X30855714Y-35827676D01*
X30855714Y-35827676D02*
X30760476Y-35922914D01*
X30760476Y-35922914D02*
X30665238Y-35970533D01*
X101301009Y-58268571D02*
X101301009Y-57935238D01*
X101824819Y-57792381D02*
X101824819Y-58268571D01*
X101824819Y-58268571D02*
X100824819Y-58268571D01*
X100824819Y-58268571D02*
X100824819Y-57792381D01*
X101777200Y-57411428D02*
X101824819Y-57268571D01*
X101824819Y-57268571D02*
X101824819Y-57030476D01*
X101824819Y-57030476D02*
X101777200Y-56935238D01*
X101777200Y-56935238D02*
X101729580Y-56887619D01*
X101729580Y-56887619D02*
X101634342Y-56840000D01*
X101634342Y-56840000D02*
X101539104Y-56840000D01*
X101539104Y-56840000D02*
X101443866Y-56887619D01*
X101443866Y-56887619D02*
X101396247Y-56935238D01*
X101396247Y-56935238D02*
X101348628Y-57030476D01*
X101348628Y-57030476D02*
X101301009Y-57220952D01*
X101301009Y-57220952D02*
X101253390Y-57316190D01*
X101253390Y-57316190D02*
X101205771Y-57363809D01*
X101205771Y-57363809D02*
X101110533Y-57411428D01*
X101110533Y-57411428D02*
X101015295Y-57411428D01*
X101015295Y-57411428D02*
X100920057Y-57363809D01*
X100920057Y-57363809D02*
X100872438Y-57316190D01*
X100872438Y-57316190D02*
X100824819Y-57220952D01*
X100824819Y-57220952D02*
X100824819Y-56982857D01*
X100824819Y-56982857D02*
X100872438Y-56840000D01*
X101824819Y-56411428D02*
X100824819Y-56411428D01*
X100824819Y-56411428D02*
X100824819Y-56030476D01*
X100824819Y-56030476D02*
X100872438Y-55935238D01*
X100872438Y-55935238D02*
X100920057Y-55887619D01*
X100920057Y-55887619D02*
X101015295Y-55840000D01*
X101015295Y-55840000D02*
X101158152Y-55840000D01*
X101158152Y-55840000D02*
X101253390Y-55887619D01*
X101253390Y-55887619D02*
X101301009Y-55935238D01*
X101301009Y-55935238D02*
X101348628Y-56030476D01*
X101348628Y-56030476D02*
X101348628Y-56411428D01*
X100824819Y-55506666D02*
X100824819Y-54887619D01*
X100824819Y-54887619D02*
X101205771Y-55220952D01*
X101205771Y-55220952D02*
X101205771Y-55078095D01*
X101205771Y-55078095D02*
X101253390Y-54982857D01*
X101253390Y-54982857D02*
X101301009Y-54935238D01*
X101301009Y-54935238D02*
X101396247Y-54887619D01*
X101396247Y-54887619D02*
X101634342Y-54887619D01*
X101634342Y-54887619D02*
X101729580Y-54935238D01*
X101729580Y-54935238D02*
X101777200Y-54982857D01*
X101777200Y-54982857D02*
X101824819Y-55078095D01*
X101824819Y-55078095D02*
X101824819Y-55363809D01*
X101824819Y-55363809D02*
X101777200Y-55459047D01*
X101777200Y-55459047D02*
X101729580Y-55506666D01*
X100920057Y-54506666D02*
X100872438Y-54459047D01*
X100872438Y-54459047D02*
X100824819Y-54363809D01*
X100824819Y-54363809D02*
X100824819Y-54125714D01*
X100824819Y-54125714D02*
X100872438Y-54030476D01*
X100872438Y-54030476D02*
X100920057Y-53982857D01*
X100920057Y-53982857D02*
X101015295Y-53935238D01*
X101015295Y-53935238D02*
X101110533Y-53935238D01*
X101110533Y-53935238D02*
X101253390Y-53982857D01*
X101253390Y-53982857D02*
X101824819Y-54554285D01*
X101824819Y-54554285D02*
X101824819Y-53935238D01*
X101920057Y-53744762D02*
X101920057Y-52982857D01*
X101824819Y-52173333D02*
X101348628Y-52506666D01*
X101824819Y-52744761D02*
X100824819Y-52744761D01*
X100824819Y-52744761D02*
X100824819Y-52363809D01*
X100824819Y-52363809D02*
X100872438Y-52268571D01*
X100872438Y-52268571D02*
X100920057Y-52220952D01*
X100920057Y-52220952D02*
X101015295Y-52173333D01*
X101015295Y-52173333D02*
X101158152Y-52173333D01*
X101158152Y-52173333D02*
X101253390Y-52220952D01*
X101253390Y-52220952D02*
X101301009Y-52268571D01*
X101301009Y-52268571D02*
X101348628Y-52363809D01*
X101348628Y-52363809D02*
X101348628Y-52744761D01*
X101824819Y-51744761D02*
X101158152Y-51744761D01*
X100824819Y-51744761D02*
X100872438Y-51792380D01*
X100872438Y-51792380D02*
X100920057Y-51744761D01*
X100920057Y-51744761D02*
X100872438Y-51697142D01*
X100872438Y-51697142D02*
X100824819Y-51744761D01*
X100824819Y-51744761D02*
X100920057Y-51744761D01*
X101158152Y-50840000D02*
X101967676Y-50840000D01*
X101967676Y-50840000D02*
X102062914Y-50887619D01*
X102062914Y-50887619D02*
X102110533Y-50935238D01*
X102110533Y-50935238D02*
X102158152Y-51030476D01*
X102158152Y-51030476D02*
X102158152Y-51173333D01*
X102158152Y-51173333D02*
X102110533Y-51268571D01*
X101777200Y-50840000D02*
X101824819Y-50935238D01*
X101824819Y-50935238D02*
X101824819Y-51125714D01*
X101824819Y-51125714D02*
X101777200Y-51220952D01*
X101777200Y-51220952D02*
X101729580Y-51268571D01*
X101729580Y-51268571D02*
X101634342Y-51316190D01*
X101634342Y-51316190D02*
X101348628Y-51316190D01*
X101348628Y-51316190D02*
X101253390Y-51268571D01*
X101253390Y-51268571D02*
X101205771Y-51220952D01*
X101205771Y-51220952D02*
X101158152Y-51125714D01*
X101158152Y-51125714D02*
X101158152Y-50935238D01*
X101158152Y-50935238D02*
X101205771Y-50840000D01*
X101824819Y-50363809D02*
X100824819Y-50363809D01*
X101824819Y-49935238D02*
X101301009Y-49935238D01*
X101301009Y-49935238D02*
X101205771Y-49982857D01*
X101205771Y-49982857D02*
X101158152Y-50078095D01*
X101158152Y-50078095D02*
X101158152Y-50220952D01*
X101158152Y-50220952D02*
X101205771Y-50316190D01*
X101205771Y-50316190D02*
X101253390Y-50363809D01*
X101158152Y-49601904D02*
X101158152Y-49220952D01*
X100824819Y-49459047D02*
X101681961Y-49459047D01*
X101681961Y-49459047D02*
X101777200Y-49411428D01*
X101777200Y-49411428D02*
X101824819Y-49316190D01*
X101824819Y-49316190D02*
X101824819Y-49220952D01*
X101824819Y-48363809D02*
X101824819Y-48935237D01*
X101824819Y-48649523D02*
X100824819Y-48649523D01*
X100824819Y-48649523D02*
X100967676Y-48744761D01*
X100967676Y-48744761D02*
X101062914Y-48839999D01*
X101062914Y-48839999D02*
X101110533Y-48935237D01*
X142401009Y-32344762D02*
X142401009Y-32011429D01*
X142924819Y-31868572D02*
X142924819Y-32344762D01*
X142924819Y-32344762D02*
X141924819Y-32344762D01*
X141924819Y-32344762D02*
X141924819Y-31868572D01*
X142877200Y-31487619D02*
X142924819Y-31344762D01*
X142924819Y-31344762D02*
X142924819Y-31106667D01*
X142924819Y-31106667D02*
X142877200Y-31011429D01*
X142877200Y-31011429D02*
X142829580Y-30963810D01*
X142829580Y-30963810D02*
X142734342Y-30916191D01*
X142734342Y-30916191D02*
X142639104Y-30916191D01*
X142639104Y-30916191D02*
X142543866Y-30963810D01*
X142543866Y-30963810D02*
X142496247Y-31011429D01*
X142496247Y-31011429D02*
X142448628Y-31106667D01*
X142448628Y-31106667D02*
X142401009Y-31297143D01*
X142401009Y-31297143D02*
X142353390Y-31392381D01*
X142353390Y-31392381D02*
X142305771Y-31440000D01*
X142305771Y-31440000D02*
X142210533Y-31487619D01*
X142210533Y-31487619D02*
X142115295Y-31487619D01*
X142115295Y-31487619D02*
X142020057Y-31440000D01*
X142020057Y-31440000D02*
X141972438Y-31392381D01*
X141972438Y-31392381D02*
X141924819Y-31297143D01*
X141924819Y-31297143D02*
X141924819Y-31059048D01*
X141924819Y-31059048D02*
X141972438Y-30916191D01*
X142924819Y-30487619D02*
X141924819Y-30487619D01*
X141924819Y-30487619D02*
X141924819Y-30106667D01*
X141924819Y-30106667D02*
X141972438Y-30011429D01*
X141972438Y-30011429D02*
X142020057Y-29963810D01*
X142020057Y-29963810D02*
X142115295Y-29916191D01*
X142115295Y-29916191D02*
X142258152Y-29916191D01*
X142258152Y-29916191D02*
X142353390Y-29963810D01*
X142353390Y-29963810D02*
X142401009Y-30011429D01*
X142401009Y-30011429D02*
X142448628Y-30106667D01*
X142448628Y-30106667D02*
X142448628Y-30487619D01*
X141924819Y-29582857D02*
X141924819Y-28963810D01*
X141924819Y-28963810D02*
X142305771Y-29297143D01*
X142305771Y-29297143D02*
X142305771Y-29154286D01*
X142305771Y-29154286D02*
X142353390Y-29059048D01*
X142353390Y-29059048D02*
X142401009Y-29011429D01*
X142401009Y-29011429D02*
X142496247Y-28963810D01*
X142496247Y-28963810D02*
X142734342Y-28963810D01*
X142734342Y-28963810D02*
X142829580Y-29011429D01*
X142829580Y-29011429D02*
X142877200Y-29059048D01*
X142877200Y-29059048D02*
X142924819Y-29154286D01*
X142924819Y-29154286D02*
X142924819Y-29440000D01*
X142924819Y-29440000D02*
X142877200Y-29535238D01*
X142877200Y-29535238D02*
X142829580Y-29582857D01*
X142020057Y-28582857D02*
X141972438Y-28535238D01*
X141972438Y-28535238D02*
X141924819Y-28440000D01*
X141924819Y-28440000D02*
X141924819Y-28201905D01*
X141924819Y-28201905D02*
X141972438Y-28106667D01*
X141972438Y-28106667D02*
X142020057Y-28059048D01*
X142020057Y-28059048D02*
X142115295Y-28011429D01*
X142115295Y-28011429D02*
X142210533Y-28011429D01*
X142210533Y-28011429D02*
X142353390Y-28059048D01*
X142353390Y-28059048D02*
X142924819Y-28630476D01*
X142924819Y-28630476D02*
X142924819Y-28011429D01*
X143020057Y-27820953D02*
X143020057Y-27059048D01*
X142924819Y-26344762D02*
X142924819Y-26820952D01*
X142924819Y-26820952D02*
X141924819Y-26820952D01*
X142877200Y-25630476D02*
X142924819Y-25725714D01*
X142924819Y-25725714D02*
X142924819Y-25916190D01*
X142924819Y-25916190D02*
X142877200Y-26011428D01*
X142877200Y-26011428D02*
X142781961Y-26059047D01*
X142781961Y-26059047D02*
X142401009Y-26059047D01*
X142401009Y-26059047D02*
X142305771Y-26011428D01*
X142305771Y-26011428D02*
X142258152Y-25916190D01*
X142258152Y-25916190D02*
X142258152Y-25725714D01*
X142258152Y-25725714D02*
X142305771Y-25630476D01*
X142305771Y-25630476D02*
X142401009Y-25582857D01*
X142401009Y-25582857D02*
X142496247Y-25582857D01*
X142496247Y-25582857D02*
X142591485Y-26059047D01*
X142258152Y-25297142D02*
X142258152Y-24916190D01*
X142924819Y-25154285D02*
X142067676Y-25154285D01*
X142067676Y-25154285D02*
X141972438Y-25106666D01*
X141972438Y-25106666D02*
X141924819Y-25011428D01*
X141924819Y-25011428D02*
X141924819Y-24916190D01*
X142258152Y-24725713D02*
X142258152Y-24344761D01*
X141924819Y-24582856D02*
X142781961Y-24582856D01*
X142781961Y-24582856D02*
X142877200Y-24535237D01*
X142877200Y-24535237D02*
X142924819Y-24439999D01*
X142924819Y-24439999D02*
X142924819Y-24344761D01*
X142924819Y-23487618D02*
X142924819Y-24059046D01*
X142924819Y-23773332D02*
X141924819Y-23773332D01*
X141924819Y-23773332D02*
X142067676Y-23868570D01*
X142067676Y-23868570D02*
X142162914Y-23963808D01*
X142162914Y-23963808D02*
X142210533Y-24059046D01*
D11*
%TO.C,Pi_Zero_2W1*%
X69850000Y-74990000D02*
X21530000Y-74990000D01*
X72450000Y-74990000D02*
X71120000Y-74990000D01*
X72450000Y-73660000D02*
X72450000Y-74990000D01*
X69850000Y-72390000D02*
X69850000Y-74990000D01*
X72450000Y-72390000D02*
X69850000Y-72390000D01*
X21530000Y-69790000D02*
X21530000Y-74990000D01*
X72450000Y-69790000D02*
X72450000Y-72390000D01*
X72450000Y-69790000D02*
X21530000Y-69790000D01*
%TO.C,LED_Strip1*%
X142990000Y-85525000D02*
X144790000Y-85525000D01*
X144790000Y-86275000D01*
X142990000Y-86275000D01*
X142990000Y-85525000D01*
X137990000Y-85525000D02*
X141490000Y-85525000D01*
X141490000Y-86275000D01*
X137990000Y-86275000D01*
X137990000Y-85525000D01*
X134690000Y-85525000D02*
X136490000Y-85525000D01*
X136490000Y-86275000D01*
X134690000Y-86275000D01*
X134690000Y-85525000D01*
X134680000Y-85515000D02*
X144800000Y-85515000D01*
X144800000Y-91485000D01*
X134680000Y-91485000D01*
X134680000Y-85515000D01*
X144790000Y-87775000D02*
X144040000Y-87775000D01*
X144040000Y-90725000D02*
X139740000Y-90725000D01*
X144040000Y-87775000D02*
X144040000Y-90725000D01*
X135640000Y-85225000D02*
X134390000Y-85225000D01*
X135440000Y-90725000D02*
X139740000Y-90725000D01*
X135440000Y-87775000D02*
X135440000Y-90725000D01*
X134690000Y-87775000D02*
X135440000Y-87775000D01*
X134390000Y-85225000D02*
X134390000Y-86475000D01*
%TO.C,Pairing_Button1*%
X28750000Y-89000000D02*
X28750000Y-90500000D01*
X30000000Y-93000000D02*
X34500000Y-93000000D01*
X34500000Y-86500000D02*
X30000000Y-86500000D01*
X35750000Y-90500000D02*
X35750000Y-89000000D01*
%TO.C,J1*%
X25220000Y-25880000D02*
X39920000Y-25880000D01*
X25220000Y-35080000D02*
X25220000Y-25880000D01*
X34020000Y-35080000D02*
X25220000Y-35080000D01*
X39070000Y-25680000D02*
X40120000Y-25680000D01*
X39920000Y-25880000D02*
X39920000Y-28480000D01*
X39920000Y-32380000D02*
X39920000Y-35080000D01*
X39920000Y-35080000D02*
X38020000Y-35080000D01*
X40120000Y-26730000D02*
X40120000Y-25680000D01*
%TO.C,ESP32_Right1*%
X105410000Y-52010000D02*
X141030000Y-52010000D01*
X102810000Y-52010000D02*
X104140000Y-52010000D01*
X102810000Y-53340000D02*
X102810000Y-52010000D01*
X141030000Y-54670000D02*
X141030000Y-52010000D01*
X105410000Y-54670000D02*
X105410000Y-52010000D01*
X105410000Y-54670000D02*
X141030000Y-54670000D01*
%TO.C,ESP32_Left1*%
X138430000Y-26610000D02*
X102810000Y-26610000D01*
X138430000Y-26610000D02*
X138430000Y-29270000D01*
X102810000Y-26610000D02*
X102810000Y-29270000D01*
X141030000Y-27940000D02*
X141030000Y-29270000D01*
X141030000Y-29270000D02*
X139700000Y-29270000D01*
X138430000Y-29270000D02*
X102810000Y-29270000D01*
%TD*%
M02*
